# xmcd
#
# Track frame offsets:
#	150
#	16414
#	30363
#	45696
#	58585
#	74015
#	87068
#	105460
#	119887
#	133576
#	148402
#
# Disc length: 2167 seconds
# Revision: 0
# Processed by: cddbd v1.5.2PL0 Copyright (c) Steve Scherf et al.
# Submitted via: dBpowerAMP V12.0
#
DISCID=9f08750b
DTITLE=Livy Jeanne - Dashboard Renegade
DYEAR=2015
DGENRE=Country
TTITLE0=All Kinds Of Crazy
TTITLE1=Wrong Side Of The Dirt
TTITLE2=Fake It Past Goodbye
TTITLE3=I Got Your Number
TTITLE4=80 Proof
TTITLE5=Gone Baby Gone
TTITLE6=Dirt Cheap
TTITLE7=Runaway Train
TTITLE8=Dashboard Renegades
TTITLE9=1000 Times Goodnight
TTITLE10=Any Other Way [Bonus Track]
EXTD=
EXTT0=
EXTT1=
EXTT2=
EXTT3=
EXTT4=
EXTT5=
EXTT6=
EXTT7=
EXTT8=
EXTT9=
EXTT10=
PLAYORDER=
